<?xml version="1.0" encoding="UTF-8"?>
<svg version="1.1" xmlns="http://www.w3.org/2000/svg" width="72" height="73">
<path d="M0,0 L3,0 L3,1 L20,1 L20,0 L42,0 L42,1 L57,1 L57,19 L56,19 L56,24 L55,24 L55,28 L54,28 L54,31 L53,31 L53,34 L52,34 L52,37 L51,37 L51,39 L50,39 L50,42 L49,42 L49,44 L48,44 L48,45 L47,45 L47,47 L46,47 L46,49 L45,49 L45,50 L44,50 L44,52 L43,52 L43,53 L42,53 L42,55 L41,55 L41,56 L40,56 L40,57 L39,57 L39,58 L38,58 L38,59 L37,59 L37,61 L36,61 L36,62 L35,62 L35,63 L34,63 L34,64 L33,64 L33,65 L32,65 L32,66 L30,66 L30,67 L29,67 L29,68 L28,68 L28,69 L27,69 L27,70 L25,70 L25,71 L24,71 L24,72 L22,72 L22,71 L20,71 L20,70 L19,70 L19,69 L18,69 L18,68 L16,68 L16,67 L15,67 L15,66 L14,66 L14,65 L13,65 L13,64 L12,64 L12,63 L11,63 L11,62 L10,62 L10,61 L9,61 L9,60 L8,60 L8,59 L7,59 L7,58 L6,58 L6,57 L5,57 L5,56 L4,56 L4,54 L3,54 L3,53 L2,53 L2,51 L1,51 L1,50 L0,50 L0,48 L-1,48 L-1,47 L-2,47 L-2,45 L-3,45 L-3,43 L-4,43 L-4,41 L-5,41 L-5,39 L-6,39 L-6,37 L-7,37 L-7,34 L-8,34 L-8,31 L-9,31 L-9,28 L-10,28 L-10,23 L-11,23 L-11,16 L-12,16 L-12,1 L0,1 Z " fill="#6C9AC8" transform="translate(13,0)"/>
<path d="M0,0 L63,0 L63,13 L62,13 L62,20 L61,20 L61,23 L60,23 L60,27 L59,27 L59,30 L58,30 L58,32 L57,32 L57,35 L55,35 L55,34 L50,34 L50,35 L49,35 L49,37 L48,37 L48,39 L47,39 L47,40 L46,40 L46,42 L45,42 L45,43 L44,43 L44,44 L43,44 L43,46 L42,46 L42,47 L41,47 L41,48 L40,48 L40,49 L39,49 L39,51 L37,51 L37,30 L32,30 L32,46 L31,46 L31,45 L30,45 L30,44 L29,44 L29,43 L28,43 L28,42 L27,42 L27,41 L26,41 L26,39 L25,39 L25,38 L24,38 L24,37 L23,37 L23,35 L22,35 L22,33 L21,33 L21,31 L20,31 L20,29 L19,29 L19,26 L18,26 L18,24 L17,24 L17,19 L16,19 L16,14 L32,14 L32,10 L11,10 L11,16 L12,16 L12,21 L13,21 L13,24 L14,24 L14,28 L15,28 L15,30 L16,30 L16,33 L17,33 L17,35 L18,35 L18,37 L19,37 L19,39 L20,39 L20,41 L21,41 L21,42 L22,42 L22,43 L23,43 L23,45 L24,45 L24,46 L25,46 L25,47 L26,47 L26,48 L27,48 L27,49 L26,49 L26,51 L25,51 L25,50 L24,50 L24,49 L23,49 L23,48 L22,48 L22,47 L21,47 L21,45 L20,45 L20,44 L19,44 L19,43 L18,43 L18,41 L17,41 L17,40 L16,40 L16,38 L15,38 L15,36 L14,36 L14,34 L13,34 L13,32 L12,32 L12,30 L11,30 L11,26 L10,26 L10,24 L9,24 L9,19 L8,19 L8,11 L7,11 L7,7 L31,7 L31,2 L1,2 L1,7 L0,7 Z " fill="#F6F9FC" transform="translate(4,4)"/>
<path d="M0,0 L28,0 L28,4 L5,4 L5,7 L21,7 L21,12 L5,12 L5,21 L17,21 L17,24 L16,24 L16,28 L15,28 L15,29 L14,29 L14,32 L13,32 L13,33 L12,33 L12,35 L11,35 L11,36 L10,36 L10,38 L9,38 L9,39 L8,39 L8,41 L6,41 L6,34 L7,34 L7,33 L8,33 L8,31 L9,31 L9,29 L10,29 L10,27 L11,27 L11,26 L-12,26 L-12,21 L0,21 Z " fill="#0757A5" transform="translate(37,7)"/>
<path d="M0,0 L29,0 L29,5 L5,5 L5,9 L6,9 L6,17 L7,17 L7,22 L8,22 L8,24 L9,24 L9,28 L10,28 L10,30 L11,30 L11,32 L12,32 L12,34 L13,34 L13,36 L14,36 L14,38 L15,38 L15,39 L16,39 L16,41 L17,41 L17,42 L18,42 L18,43 L19,43 L19,45 L20,45 L20,46 L21,46 L21,47 L22,47 L22,48 L23,48 L23,49 L24,49 L24,50 L25,50 L25,51 L26,51 L26,52 L27,52 L27,53 L28,53 L28,59 L27,59 L27,58 L25,58 L25,57 L24,57 L24,55 L22,55 L22,54 L21,54 L21,52 L20,52 L20,51 L19,51 L19,50 L18,50 L18,49 L17,49 L17,48 L16,48 L16,47 L15,47 L15,45 L14,45 L14,44 L13,44 L13,43 L12,43 L12,41 L11,41 L11,40 L10,40 L10,38 L9,38 L9,36 L8,36 L8,34 L7,34 L7,32 L6,32 L6,29 L5,29 L5,26 L4,26 L4,24 L3,24 L3,20 L2,20 L2,16 L1,16 L1,10 L0,10 Z " fill="#125EA8" transform="translate(6,6)"/>
<path d="M0,0 L1,0 L1,5 L2,5 L2,10 L3,10 L3,13 L4,13 L4,16 L5,16 L5,19 L6,19 L6,21 L7,21 L7,23 L8,23 L8,26 L9,26 L9,27 L10,27 L10,29 L11,29 L11,31 L12,31 L12,32 L13,32 L13,34 L14,34 L14,35 L15,35 L15,36 L16,36 L16,38 L17,38 L17,39 L18,39 L18,40 L19,40 L19,41 L20,41 L20,42 L21,42 L21,43 L22,43 L22,44 L23,44 L23,45 L24,45 L24,46 L25,46 L25,47 L26,47 L26,48 L27,48 L27,49 L28,49 L28,50 L30,50 L30,51 L31,51 L31,52 L33,52 L33,51 L34,51 L34,50 L35,50 L35,49 L37,49 L37,48 L38,48 L38,47 L39,47 L39,46 L40,46 L40,45 L41,45 L41,44 L42,44 L42,43 L43,43 L43,42 L44,42 L44,41 L45,41 L45,39 L46,39 L46,38 L47,38 L47,37 L48,37 L48,36 L49,36 L49,34 L50,34 L50,33 L51,33 L51,31 L52,31 L52,30 L53,30 L53,28 L54,28 L54,26 L55,26 L55,24 L56,24 L56,22 L57,22 L57,19 L58,19 L58,17 L59,17 L59,14 L60,14 L60,16 L61,16 L61,20 L60,20 L60,22 L59,22 L59,25 L58,25 L58,27 L57,27 L57,28 L56,28 L56,30 L55,30 L55,32 L54,32 L54,33 L53,33 L53,35 L52,35 L52,36 L51,36 L51,38 L50,38 L50,39 L49,39 L49,40 L48,40 L48,41 L47,41 L47,42 L46,42 L46,44 L45,44 L45,45 L44,45 L44,46 L43,46 L43,47 L42,47 L42,48 L41,48 L41,49 L39,49 L39,50 L38,50 L38,51 L37,51 L37,52 L36,52 L36,53 L34,53 L34,54 L33,54 L33,55 L31,55 L31,54 L29,54 L29,53 L28,53 L28,52 L27,52 L27,51 L25,51 L25,50 L24,50 L24,49 L23,49 L23,48 L22,48 L22,47 L21,47 L21,46 L20,46 L20,45 L19,45 L19,44 L18,44 L18,43 L17,43 L17,42 L16,42 L16,41 L15,41 L15,40 L14,40 L14,39 L13,39 L13,37 L12,37 L12,36 L11,36 L11,34 L10,34 L10,33 L9,33 L9,31 L8,31 L8,30 L7,30 L7,28 L6,28 L6,26 L5,26 L5,24 L4,24 L4,22 L3,22 L3,20 L2,20 L2,17 L1,17 L1,14 L0,14 L0,11 L-1,11 L-1,6 L-2,6 L-2,2 L0,2 Z " fill="#2368AD" transform="translate(4,17)"/>
<path d="M0,0 L16,0 L16,9 L5,9 L5,14 L17,14 L17,15 L16,15 L16,31 L15,31 L15,30 L14,30 L14,29 L13,29 L13,28 L12,28 L12,27 L11,27 L11,26 L10,26 L10,24 L9,24 L9,23 L8,23 L8,22 L7,22 L7,20 L6,20 L6,18 L5,18 L5,16 L4,16 L4,14 L3,14 L3,11 L2,11 L2,9 L1,9 L1,4 L0,4 Z " fill="#FBFCFD" transform="translate(20,19)"/>
<path d="M0,0 L21,0 L21,4 L5,4 L5,9 L6,9 L6,14 L7,14 L7,16 L8,16 L8,19 L9,19 L9,21 L10,21 L10,23 L11,23 L11,25 L12,25 L12,27 L13,27 L13,28 L14,28 L14,29 L15,29 L15,31 L16,31 L16,32 L17,32 L17,33 L18,33 L18,34 L19,34 L19,35 L20,35 L20,37 L21,37 L21,43 L20,43 L20,42 L19,42 L19,41 L18,41 L18,40 L17,40 L17,39 L16,39 L16,38 L15,38 L15,37 L14,37 L14,36 L13,36 L13,35 L12,35 L12,33 L11,33 L11,32 L10,32 L10,31 L9,31 L9,29 L8,29 L8,27 L7,27 L7,25 L6,25 L6,23 L5,23 L5,20 L4,20 L4,18 L3,18 L3,14 L2,14 L2,11 L1,11 L1,6 L0,6 Z " fill="#0A59A6" transform="translate(15,14)"/>
<path d="M0,0 L29,0 L29,1 L1,1 L1,22 L0,22 L0,13 L-16,13 L-16,12 L0,12 L0,8 L-21,8 L-21,14 L-20,14 L-20,19 L-19,19 L-19,22 L-18,22 L-18,26 L-17,26 L-17,28 L-16,28 L-16,31 L-15,31 L-15,33 L-14,33 L-14,35 L-13,35 L-13,37 L-12,37 L-12,39 L-11,39 L-11,40 L-10,40 L-10,41 L-9,41 L-9,43 L-8,43 L-8,44 L-7,44 L-7,45 L-6,45 L-6,46 L-5,46 L-5,47 L-6,47 L-6,49 L-7,49 L-7,48 L-8,48 L-8,47 L-9,47 L-9,46 L-10,46 L-10,45 L-11,45 L-11,43 L-12,43 L-12,42 L-13,42 L-13,41 L-14,41 L-14,39 L-15,39 L-15,38 L-16,38 L-16,36 L-17,36 L-17,34 L-18,34 L-18,32 L-19,32 L-19,30 L-20,30 L-20,28 L-21,28 L-21,24 L-22,24 L-22,22 L-23,22 L-23,17 L-24,17 L-24,9 L-25,9 L-25,5 L-2,5 L-2,6 L-21,6 L-21,7 L0,7 Z " fill="#C4D7E9" transform="translate(36,6)"/>
<path d="M0,0 L4,0 L4,21 L6,21 L6,19 L7,19 L7,18 L8,18 L8,17 L9,17 L9,16 L10,16 L10,14 L11,14 L11,13 L12,13 L12,12 L13,12 L13,10 L14,10 L14,9 L15,9 L15,7 L16,7 L16,5 L17,5 L17,4 L22,4 L22,5 L21,5 L21,7 L20,7 L20,9 L19,9 L19,10 L18,10 L18,12 L17,12 L17,14 L16,14 L16,15 L15,15 L15,17 L14,17 L14,18 L13,18 L13,19 L12,19 L12,20 L11,20 L11,22 L10,22 L10,23 L9,23 L9,24 L8,24 L8,25 L7,25 L7,26 L6,26 L6,27 L5,27 L5,28 L4,28 L4,29 L3,29 L3,30 L2,30 L2,31 L1,31 L1,32 L0,32 Z " fill="#0656A4" transform="translate(37,34)"/>
<path d="M0,0 L28,0 L28,4 L4,4 L4,21 L0,21 Z " fill="#0052A2" transform="translate(37,7)"/>
<path d="M0,0 L63,0 L63,1 L62,1 L62,2 L32,2 L32,9 L11,9 L11,8 L30,8 L30,7 L31,7 L31,2 L1,2 L1,7 L0,7 Z " fill="#FDFEFE" transform="translate(4,4)"/>
<path d="M0,0 L1,0 L1,3 L17,3 L17,8 L1,8 L1,17 L13,17 L13,20 L12,20 L12,18 L-16,18 L-16,17 L0,17 Z " fill="#3F78B4" transform="translate(41,11)"/>
<path d="M0,0 L1,0 L1,10 L2,10 L2,16 L3,16 L3,20 L4,20 L4,24 L5,24 L5,26 L6,26 L6,29 L7,29 L7,32 L8,32 L8,34 L9,34 L9,36 L10,36 L10,38 L11,38 L11,40 L12,40 L12,41 L13,41 L13,43 L14,43 L14,44 L15,44 L15,45 L14,45 L14,46 L13,46 L13,45 L12,45 L12,43 L11,43 L11,42 L10,42 L10,40 L9,40 L9,38 L8,38 L8,37 L7,37 L7,34 L6,34 L6,32 L5,32 L5,30 L4,30 L4,27 L3,27 L3,24 L2,24 L2,21 L1,21 L1,16 L0,16 L0,11 L-1,11 L-1,5 L0,5 Z " fill="#E0EBF3" transform="translate(5,6)"/>
<path d="M0,0 L11,0 L11,1 L10,1 L10,3 L9,3 L9,5 L8,5 L8,7 L7,7 L7,8 L6,8 L6,15 L7,15 L7,16 L6,16 L6,17 L5,17 L5,21 L6,21 L6,22 L4,22 L4,1 L0,1 Z " fill="#3975B2" transform="translate(37,33)"/>
<path d="M0,0 L15,0 L15,4 L0,4 Z " fill="#0153A3" transform="translate(43,14)"/>
<path d="M0,0 L1,0 L1,5 L2,5 L2,10 L3,10 L3,13 L4,13 L4,16 L5,16 L5,18 L4,18 L4,17 L3,17 L3,20 L2,20 L2,17 L1,17 L1,14 L0,14 L0,11 L-1,11 L-1,6 L-2,6 L-2,2 L0,2 Z " fill="#1B63AA" transform="translate(4,17)"/>
<path d="M0,0 L1,0 L1,1 L2,1 L2,2 L3,2 L3,3 L2,3 L2,4 L1,4 L1,6 L0,6 L0,7 L-1,7 L-1,8 L-2,8 L-2,10 L-3,10 L-3,11 L-4,11 L-4,12 L-5,12 L-5,13 L-6,13 L-6,14 L-7,14 L-7,10 L-6,10 L-6,9 L-5,9 L-5,8 L-4,8 L-4,6 L-3,6 L-3,5 L-2,5 L-2,3 L-1,3 L-1,2 L0,2 Z " fill="#F2F7FA" transform="translate(49,40)"/>
<path d="M0,0 L6,0 L6,1 L5,1 L5,3 L4,3 L4,5 L3,5 L3,7 L2,7 L2,8 L1,8 L1,9 L0,9 Z " fill="#F4F8FB" transform="translate(42,33)"/>
<path d="M0,0 L1,0 L1,4 L0,4 L0,5 L-1,5 L-1,6 L-2,6 L-2,7 L-3,7 L-3,8 L-4,8 L-4,9 L-5,9 L-5,10 L-6,10 L-6,11 L-7,11 L-7,12 L-8,12 L-8,11 L-9,11 L-9,10 L-8,10 L-8,9 L-7,9 L-7,8 L-6,8 L-6,7 L-5,7 L-5,6 L-4,6 L-4,5 L-3,5 L-3,4 L-2,4 L-2,3 L-1,3 L-1,2 L0,2 Z " fill="#D5E4EF" transform="translate(48,54)"/>
<path d="M0,0 L1,0 L1,2 L2,2 L2,6 L1,6 L1,8 L0,8 L0,11 L-1,11 L-1,13 L-2,13 L-2,5 L-1,5 L-1,3 L0,3 Z " fill="#3071B2" transform="translate(63,31)"/>
<path d="M0,0 L1,0 L1,10 L2,10 L2,16 L0,16 L0,11 L-1,11 L-1,5 L0,5 Z " fill="#E7F0F6" transform="translate(5,6)"/>
<path d="M0,0 L1,0 L1,2 L2,2 L2,3 L3,3 L3,5 L4,5 L4,6 L5,6 L5,7 L6,7 L6,9 L3,9 L3,8 L2,8 L2,7 L1,7 L1,5 L0,5 Z " fill="#1B62A9" transform="translate(14,46)"/>
<path d="M0,0 L2,0 L2,1 L3,1 L3,2 L4,2 L4,3 L5,3 L5,4 L6,4 L6,5 L7,5 L7,6 L3,6 L3,5 L2,5 L2,4 L1,4 L1,3 L0,3 Z " fill="#1F65AB" transform="translate(25,61)"/>
<path d="M0,0 L2,0 L2,2 L3,2 L3,4 L4,4 L4,5 L5,5 L5,7 L6,7 L6,8 L7,8 L7,9 L6,9 L6,10 L5,10 L5,9 L4,9 L4,7 L3,7 L3,6 L2,6 L2,4 L1,4 L1,2 L0,2 Z " fill="#E6EFF6" transform="translate(13,42)"/>
<path d="M0,0 L1,0 L1,1 L2,1 L2,2 L3,2 L3,3 L2,3 L2,4 L1,4 L1,6 L0,6 L0,7 L-1,7 L-1,6 L-2,6 L-2,7 L-4,7 L-4,6 L-3,6 L-3,5 L-2,5 L-2,3 L-1,3 L-1,2 L0,2 Z " fill="#EAF1F7" transform="translate(49,40)"/>
<path d="M0,0 L1,0 L1,3 L2,3 L2,6 L3,6 L3,8 L4,8 L4,10 L3,10 L3,11 L2,11 L2,8 L1,8 L1,6 L0,6 L0,4 L-1,4 L-1,2 L0,2 Z " fill="#D4E2EE" transform="translate(10,32)"/>
<path d="M0,0 L1,0 L1,1 L2,1 L2,3 L3,3 L3,4 L4,4 L4,5 L3,5 L3,7 L2,7 L2,6 L1,6 L1,5 L0,5 L0,3 L-1,3 L-1,1 L0,1 Z " fill="#EAF1F7" transform="translate(22,42)"/>
<path d="M0,0 L1,0 L1,4 L0,4 L0,11 L-1,11 L-1,6 L-2,6 L-2,2 L0,2 Z " fill="#4480BA" transform="translate(4,17)"/>
<path d="M0,0 L1,0 L1,6 L-1,6 L-1,7 L-2,7 L-2,6 L-3,6 L-3,5 L-4,5 L-4,4 L-5,4 L-5,2 L-4,2 L-4,3 L-3,3 L-3,4 L-1,4 L-1,5 L0,5 Z " fill="#C4D6E7" transform="translate(34,60)"/>
<path d="M0,0 L1,0 L1,3 L2,3 L2,5 L1,5 L1,7 L0,7 L0,9 L-1,9 L-1,3 L0,3 Z " fill="#DBE7F2" transform="translate(16,25)"/>
<path d="M0,0 L2,0 L2,3 L0,3 L0,4 L-1,4 L-1,5 L-2,5 L-2,4 L-4,4 L-4,3 L-2,3 L-2,2 L-1,2 L-1,1 L0,1 Z " fill="#2067AD" transform="translate(43,63)"/>
<path d="M0,0 L1,0 L1,1 L2,1 L2,2 L3,2 L3,6 L1,6 L1,5 L0,5 Z " fill="#1660A9" transform="translate(7,34)"/>
<path d="M0,0 L1,0 L1,3 L2,3 L2,5 L1,5 L1,4 L0,4 L0,7 L-1,7 L-1,4 L-2,4 L-2,2 L0,2 Z " fill="#467FB9" transform="translate(7,30)"/>
<path d="M0,0 L1,0 L1,1 L3,1 L3,2 L2,2 L2,3 L1,3 L1,4 L0,4 L0,5 L-1,5 L-1,3 L-2,3 L-2,2 L-1,2 L-1,1 L0,1 Z " fill="#3C78B5" transform="translate(46,60)"/>
<path d="M0,0 L2,0 L2,1 L1,1 L1,2 L0,2 L0,3 L-1,3 L-1,4 L-3,4 L-3,1 L0,1 Z " fill="#E6EEF5" transform="translate(38,65)"/>
<path d="M0,0 L2,0 L2,1 L3,1 L3,4 L2,4 L2,5 L1,5 L1,3 L0,3 Z " fill="#F5F9FB" transform="translate(17,35)"/>
<path d="M0,0 L1,0 L1,1 L2,1 L2,2 L3,2 L3,3 L2,3 L2,4 L1,4 L1,3 L0,3 L0,4 L-2,4 L-2,3 L-1,3 L-1,2 L0,2 Z " fill="#D7E4EF" transform="translate(49,40)"/>
<path d="M0,0 L1,0 L1,2 L2,2 L2,4 L0,4 L0,5 L-1,5 L-1,3 L-2,3 L-2,2 L0,2 Z " fill="#3575B3" transform="translate(10,38)"/>
<path d="M0,0 L1,0 L1,1 L2,1 L2,2 L1,2 L1,3 L0,3 L0,2 L-2,2 L-2,1 L0,1 Z " fill="#155CA5" transform="translate(41,65)"/>
<path d="M0,0 L2,0 L2,2 L1,2 L1,3 L0,3 L0,2 L-1,2 L-1,1 L0,1 Z " fill="#C6D9E9" transform="translate(40,63)"/>
<path d="M0,0 L2,0 L2,1 L3,1 L3,2 L2,2 L2,3 L1,3 L1,2 L0,2 Z " fill="#D3E1ED" transform="translate(24,57)"/>
</svg>
