<svg width="14" height="14" viewBox="0 0 14 14" fill="none" xmlns="http://www.w3.org/2000/svg">
<path d="M0.475241 6.82281C0.494381 6.77961 0.957583 5.75203 1.98735 4.72227C3.35946 3.35016 5.09251 2.625 7.00001 2.625C8.90751 2.625 10.6406 3.35016 12.0127 4.72227C13.0424 5.75203 13.5078 6.78125 13.5248 6.82281C13.5496 6.87876 13.5625 6.93931 13.5625 7.00055C13.5625 7.06178 13.5496 7.12233 13.5248 7.17828C13.5056 7.22148 13.0424 8.24852 12.0127 9.27828C10.6406 10.6498 8.90751 11.375 7.00001 11.375C5.09251 11.375 3.35946 10.6498 1.98735 9.27828C0.957583 8.24852 0.494381 7.22148 0.475241 7.17828C0.450365 7.12233 0.43751 7.06178 0.43751 7.00055C0.43751 6.93931 0.450365 6.87876 0.475241 6.82281ZM7.00001 10.5C8.68329 10.5 10.1538 9.88805 11.3712 8.68164C11.8707 8.18491 12.2956 7.61849 12.6328 7C12.2957 6.38145 11.8707 5.81502 11.3712 5.31836C10.1538 4.11195 8.68329 3.5 7.00001 3.5C5.31672 3.5 3.84618 4.11195 2.62883 5.31836C2.12837 5.8149 1.70249 6.38133 1.36446 7C1.75876 7.73609 3.47649 10.5 7.00001 10.5ZM7.00001 4.375C7.51918 4.375 8.0267 4.52895 8.45838 4.81739C8.89006 5.10583 9.22651 5.5158 9.42519 5.99546C9.62387 6.47511 9.67585 7.00291 9.57457 7.51211C9.47328 8.02131 9.22327 8.48904 8.85616 8.85616C8.48905 9.22327 8.02132 9.47328 7.51212 9.57456C7.00292 9.67585 6.47512 9.62386 5.99546 9.42518C5.51581 9.2265 5.10584 8.89005 4.8174 8.45837C4.52896 8.02669 4.37501 7.51918 4.37501 7C4.37573 6.30403 4.65252 5.63677 5.14465 5.14464C5.63678 4.65252 6.30403 4.37572 7.00001 4.375ZM7.00001 8.75C7.34612 8.75 7.68447 8.64736 7.97225 8.45507C8.26004 8.26278 8.48434 7.98947 8.61679 7.6697C8.74925 7.34993 8.7839 6.99806 8.71638 6.65859C8.64886 6.31913 8.48218 6.0073 8.23744 5.76256C7.9927 5.51782 7.68088 5.35115 7.34141 5.28363C7.00195 5.2161 6.65008 5.25076 6.33031 5.38321C6.01054 5.51566 5.73723 5.73997 5.54493 6.02775C5.35264 6.31554 5.25001 6.65388 5.25001 7C5.25001 7.46413 5.43438 7.90925 5.76257 8.23744C6.09076 8.56563 6.53588 8.75 7.00001 8.75Z" fill="#A5A5A5"/>
</svg>
